<svg width="23" height="25" viewBox="0 0 23 25" fill="none" xmlns="http://www.w3.org/2000/svg">
<path d="M22.0747 19.9958C21.522 18.6868 20.72 17.4977 19.7133 16.4949C18.7097 15.4891 17.5208 14.6873 16.2124 14.1335C16.2006 14.1277 16.1889 14.1248 16.1772 14.1189C18.0024 12.8005 19.1889 10.6531 19.1889 8.23022C19.1889 4.21655 15.937 0.9646 11.9233 0.9646C7.90962 0.9646 4.65767 4.21655 4.65767 8.23022C4.65767 10.6531 5.84419 12.8005 7.66939 14.1218C7.65767 14.1277 7.64595 14.1306 7.63423 14.1365C6.32173 14.6902 5.144 15.4841 4.13325 16.4978C3.12752 17.5014 2.32565 18.6903 1.77192 19.9988C1.22795 21.2798 0.934566 22.6532 0.907666 24.0447C0.906884 24.0759 0.912369 24.1071 0.923796 24.1362C0.935224 24.1653 0.952364 24.1918 0.974206 24.2142C0.996048 24.2366 1.02215 24.2544 1.05098 24.2665C1.0798 24.2787 1.11076 24.2849 1.14204 24.2849H2.89985C3.02876 24.2849 3.1313 24.1824 3.13423 24.0564C3.19282 21.7947 4.10103 19.6765 5.7065 18.071C7.36763 16.4099 9.57368 15.4958 11.9233 15.4958C14.2729 15.4958 16.479 16.4099 18.1401 18.071C19.7456 19.6765 20.6538 21.7947 20.7124 24.0564C20.7153 24.1853 20.8178 24.2849 20.9467 24.2849H22.7045C22.7358 24.2849 22.7668 24.2787 22.7956 24.2665C22.8244 24.2544 22.8505 24.2366 22.8724 24.2142C22.8942 24.1918 22.9114 24.1653 22.9228 24.1362C22.9342 24.1071 22.9397 24.0759 22.9389 24.0447C22.9096 22.6443 22.6196 21.282 22.0747 19.9958ZM11.9233 13.2693C10.5786 13.2693 9.31294 12.7449 8.36079 11.7927C7.40864 10.8406 6.88423 9.57495 6.88423 8.23022C6.88423 6.8855 7.40864 5.61987 8.36079 4.66772C9.31294 3.71558 10.5786 3.19116 11.9233 3.19116C13.268 3.19116 14.5336 3.71558 15.4858 4.66772C16.4379 5.61987 16.9624 6.8855 16.9624 8.23022C16.9624 9.57495 16.4379 10.8406 15.4858 11.7927C14.5336 12.7449 13.268 13.2693 11.9233 13.2693Z" fill="white"/>
</svg>
