<svg width="90" height="19" viewBox="0 0 90 19" fill="none" xmlns="http://www.w3.org/2000/svg">
<path d="M9.196 11.606H4.192L3.364 14H0.718L5.236 1.418H8.17L12.688 14H10.024L9.196 11.606ZM8.512 9.59L6.694 4.334L4.876 9.59H8.512ZM13.7288 9.014C13.7288 7.982 13.9388 7.082 14.3588 6.314C14.7788 5.534 15.3608 4.934 16.1048 4.514C16.8488 4.082 17.7008 3.866 18.6608 3.866C19.8968 3.866 20.9168 4.178 21.7208 4.802C22.5368 5.414 23.0828 6.278 23.3588 7.394H20.6408C20.4968 6.962 20.2508 6.626 19.9028 6.386C19.5668 6.134 19.1468 6.008 18.6428 6.008C17.9228 6.008 17.3528 6.272 16.9328 6.8C16.5128 7.316 16.3028 8.054 16.3028 9.014C16.3028 9.962 16.5128 10.7 16.9328 11.228C17.3528 11.744 17.9228 12.002 18.6428 12.002C19.6628 12.002 20.3288 11.546 20.6408 10.634H23.3588C23.0828 11.714 22.5368 12.572 21.7208 13.208C20.9048 13.844 19.8848 14.162 18.6608 14.162C17.7008 14.162 16.8488 13.952 16.1048 13.532C15.3608 13.1 14.7788 12.5 14.3588 11.732C13.9388 10.952 13.7288 10.046 13.7288 9.014Z" fill="#060606"/>
<path d="M24.5569 8.978C24.5569 7.97 24.7549 7.076 25.1509 6.296C25.5589 5.516 26.1049 4.916 26.7889 4.496C27.4849 4.076 28.2589 3.866 29.1109 3.866C29.8549 3.866 30.5029 4.016 31.0549 4.316C31.6189 4.616 32.0689 4.994 32.4049 5.45V4.028H34.9429V14H32.4049V12.542C32.0809 13.01 31.6309 13.4 31.0549 13.712C30.4909 14.012 29.8369 14.162 29.0929 14.162C28.2529 14.162 27.4849 13.946 26.7889 13.514C26.1049 13.082 25.5589 12.476 25.1509 11.696C24.7549 10.904 24.5569 9.998 24.5569 8.978ZM32.4049 9.014C32.4049 8.402 32.2849 7.88 32.0449 7.448C31.8049 7.004 31.4809 6.668 31.0729 6.44C30.6649 6.2 30.2269 6.08 29.7589 6.08C29.2909 6.08 28.8589 6.194 28.4629 6.422C28.0669 6.65 27.7429 6.986 27.4909 7.43C27.2509 7.862 27.1309 8.378 27.1309 8.978C27.1309 9.578 27.2509 10.106 27.4909 10.562C27.7429 11.006 28.0669 11.348 28.4629 11.588C28.8709 11.828 29.3029 11.948 29.7589 11.948C30.2269 11.948 30.6649 11.834 31.0729 11.606C31.4809 11.366 31.8049 11.03 32.0449 10.598C32.2849 10.154 32.4049 9.626 32.4049 9.014ZM36.7561 8.978C36.7561 7.97 36.9541 7.076 37.3501 6.296C37.7581 5.516 38.3101 4.916 39.0061 4.496C39.7021 4.076 40.4761 3.866 41.3281 3.866C41.9761 3.866 42.5941 4.01 43.1821 4.298C43.7701 4.574 44.2381 4.946 44.5861 5.414V0.68H47.1421V14H44.5861V12.524C44.2741 13.016 43.8361 13.412 43.2721 13.712C42.7081 14.012 42.0541 14.162 41.3101 14.162C40.4701 14.162 39.7021 13.946 39.0061 13.514C38.3101 13.082 37.7581 12.476 37.3501 11.696C36.9541 10.904 36.7561 9.998 36.7561 8.978ZM44.6041 9.014C44.6041 8.402 44.4841 7.88 44.2441 7.448C44.0041 7.004 43.6801 6.668 43.2721 6.44C42.8641 6.2 42.4261 6.08 41.9581 6.08C41.4901 6.08 41.0581 6.194 40.6621 6.422C40.2661 6.65 39.9421 6.986 39.6901 7.43C39.4501 7.862 39.3301 8.378 39.3301 8.978C39.3301 9.578 39.4501 10.106 39.6901 10.562C39.9421 11.006 40.2661 11.348 40.6621 11.588C41.0701 11.828 41.5021 11.948 41.9581 11.948C42.4261 11.948 42.8641 11.834 43.2721 11.606C43.6801 11.366 44.0041 11.03 44.2441 10.598C44.4841 10.154 44.6041 9.626 44.6041 9.014ZM58.8733 8.798C58.8733 9.158 58.8493 9.482 58.8013 9.77H51.5113C51.5713 10.49 51.8233 11.054 52.2673 11.462C52.7113 11.87 53.2573 12.074 53.9053 12.074C54.8413 12.074 55.5073 11.672 55.9033 10.868H58.6213C58.3333 11.828 57.7813 12.62 56.9653 13.244C56.1493 13.856 55.1473 14.162 53.9593 14.162C52.9993 14.162 52.1353 13.952 51.3673 13.532C50.6113 13.1 50.0173 12.494 49.5853 11.714C49.1653 10.934 48.9553 10.034 48.9553 9.014C48.9553 7.982 49.1653 7.076 49.5853 6.296C50.0053 5.516 50.5933 4.916 51.3493 4.496C52.1053 4.076 52.9753 3.866 53.9593 3.866C54.9073 3.866 55.7533 4.07 56.4973 4.478C57.2533 4.886 57.8353 5.468 58.2433 6.224C58.6633 6.968 58.8733 7.826 58.8733 8.798ZM56.2633 8.078C56.2513 7.43 56.0173 6.914 55.5613 6.53C55.1053 6.134 54.5473 5.936 53.8873 5.936C53.2633 5.936 52.7353 6.128 52.3033 6.512C51.8833 6.884 51.6253 7.406 51.5293 8.078H56.2633ZM73.0967 3.884C74.3207 3.884 75.3047 4.262 76.0487 5.018C76.8047 5.762 77.1827 6.806 77.1827 8.15V14H74.6627V8.492C74.6627 7.712 74.4647 7.118 74.0687 6.71C73.6727 6.29 73.1327 6.08 72.4487 6.08C71.7647 6.08 71.2187 6.29 70.8107 6.71C70.4147 7.118 70.2167 7.712 70.2167 8.492V14H67.6967V8.492C67.6967 7.712 67.4987 7.118 67.1027 6.71C66.7067 6.29 66.1667 6.08 65.4827 6.08C64.7867 6.08 64.2347 6.29 63.8267 6.71C63.4307 7.118 63.2327 7.712 63.2327 8.492V14H60.7127V4.028H63.2327V5.234C63.5567 4.814 63.9707 4.484 64.4747 4.244C64.9907 4.004 65.5547 3.884 66.1667 3.884C66.9467 3.884 67.6427 4.052 68.2547 4.388C68.8667 4.712 69.3407 5.18 69.6767 5.792C70.0007 5.216 70.4687 4.754 71.0807 4.406C71.7047 4.058 72.3767 3.884 73.0967 3.884ZM89.114 4.028L82.94 18.716H80.258L82.418 13.748L78.422 4.028H81.248L83.822 10.994L86.432 4.028H89.114Z" fill="#0081FE"/>
</svg>
